<svg width="24" height="25" viewBox="0 0 24 25" fill="none" xmlns="http://www.w3.org/2000/svg">
<path d="M21.533 7.84815C21.5482 8.05901 21.5482 8.26991 21.5482 8.48076C21.5482 14.9121 16.599 22.3226 7.5533 22.3226C4.76648 22.3226 2.17767 21.5242 0 20.1386C0.395953 20.1838 0.776625 20.1988 1.18781 20.1988C3.48727 20.1988 5.60405 19.4307 7.29441 18.1203C5.13197 18.0751 3.31978 16.6744 2.69541 14.7465C3 14.7916 3.30455 14.8218 3.62437 14.8218C4.06598 14.8218 4.50764 14.7615 4.91878 14.6561C2.66498 14.2042 0.974578 12.2462 0.974578 9.8815V9.82128C1.62937 10.1828 2.39086 10.4087 3.19791 10.4388C1.87303 9.56517 1.00505 8.07407 1.00505 6.38714C1.00505 5.48345 1.24866 4.65505 1.67508 3.93208C4.09641 6.88419 7.73602 8.81207 11.8172 9.02297C11.7411 8.66148 11.6954 8.28498 11.6954 7.90842C11.6954 5.22739 13.8883 3.04346 16.6141 3.04346C18.0304 3.04346 19.3095 3.63087 20.208 4.57976C21.3197 4.3689 22.3857 3.96222 23.3299 3.40494C22.9643 4.5346 22.1877 5.4835 21.1674 6.08593C22.1573 5.98055 23.1167 5.70937 23.9999 5.33287C23.33 6.29678 22.4924 7.15527 21.533 7.84815Z" fill="#FFF9EB"/>
</svg>
